<svg width="496" height="429" viewBox="0 0 496 429" fill="none" xmlns="http://www.w3.org/2000/svg">
<path d="M159.5 234V127L250.5 73.625L263.5 66L248.5 57L145 119.5V242L194 272V254.5L159.5 234Z" fill="#020403"/>
<path d="M263.5 66L250.5 73.625L295.5 101L293.5 84L263.5 66Z" fill="#515052"/>
<path d="M338 177L351.132 197L350.893 167.5L338 148.5V177Z" fill="#515052"/>
<path d="M338 234L257.929 281.5V298.001L351.5 242.5L351.132 197L338 177V234Z" fill="black"/>
<path d="M201 275L249.5 303L252.871 301V284.5L249.5 286.5L201 257.5V275Z" fill="black"/>
<path d="M350.5 119L301 89L302 105L338 127V148.5L350.893 167.5L350.5 119Z" fill="#828284"/>
<path d="M157.705 344.239C156.58 344.239 155.577 344.045 154.696 343.659C153.821 343.273 153.125 342.736 152.608 342.048C152.097 341.355 151.818 340.551 151.773 339.636H153.92C153.966 340.199 154.159 340.685 154.5 341.094C154.841 341.497 155.287 341.81 155.838 342.031C156.389 342.253 157 342.364 157.67 342.364C158.42 342.364 159.085 342.233 159.665 341.972C160.244 341.71 160.699 341.347 161.028 340.881C161.358 340.415 161.523 339.875 161.523 339.261C161.523 338.619 161.364 338.054 161.045 337.565C160.727 337.071 160.261 336.685 159.648 336.406C159.034 336.128 158.284 335.989 157.398 335.989H156V334.114H157.398C158.091 334.114 158.699 333.989 159.222 333.739C159.75 333.489 160.162 333.136 160.457 332.682C160.759 332.227 160.909 331.693 160.909 331.08C160.909 330.489 160.778 329.974 160.517 329.537C160.256 329.099 159.886 328.759 159.409 328.514C158.938 328.27 158.381 328.148 157.739 328.148C157.136 328.148 156.568 328.259 156.034 328.48C155.506 328.696 155.074 329.011 154.739 329.426C154.403 329.835 154.222 330.33 154.193 330.909H152.148C152.182 329.994 152.457 329.193 152.974 328.506C153.491 327.812 154.168 327.273 155.003 326.886C155.844 326.5 156.767 326.307 157.773 326.307C158.852 326.307 159.778 326.526 160.551 326.963C161.324 327.395 161.918 327.966 162.332 328.676C162.747 329.386 162.955 330.153 162.955 330.977C162.955 331.96 162.696 332.798 162.179 333.491C161.668 334.185 160.972 334.665 160.091 334.932V335.068C161.193 335.25 162.054 335.719 162.673 336.474C163.293 337.224 163.602 338.153 163.602 339.261C163.602 340.21 163.344 341.062 162.827 341.818C162.315 342.568 161.616 343.159 160.73 343.591C159.844 344.023 158.835 344.239 157.705 344.239ZM172.164 344.239C171.448 344.227 170.732 344.091 170.016 343.83C169.3 343.568 168.646 343.128 168.056 342.509C167.465 341.884 166.99 341.04 166.632 339.977C166.274 338.909 166.095 337.568 166.095 335.955C166.095 334.409 166.24 333.04 166.53 331.847C166.82 330.648 167.24 329.639 167.791 328.821C168.342 327.997 169.007 327.372 169.786 326.946C170.57 326.52 171.453 326.307 172.436 326.307C173.414 326.307 174.283 326.503 175.044 326.895C175.811 327.281 176.436 327.821 176.919 328.514C177.402 329.207 177.715 330.006 177.857 330.909H175.777C175.584 330.125 175.209 329.474 174.652 328.957C174.095 328.44 173.357 328.182 172.436 328.182C171.084 328.182 170.019 328.77 169.24 329.946C168.467 331.122 168.078 332.773 168.073 334.898H168.209C168.527 334.415 168.905 334.003 169.342 333.662C169.786 333.315 170.274 333.048 170.808 332.861C171.343 332.673 171.908 332.58 172.504 332.58C173.504 332.58 174.419 332.83 175.249 333.33C176.078 333.824 176.743 334.509 177.243 335.384C177.743 336.253 177.993 337.25 177.993 338.375C177.993 339.455 177.752 340.443 177.269 341.341C176.786 342.233 176.107 342.943 175.232 343.472C174.362 343.994 173.34 344.25 172.164 344.239ZM172.164 342.364C172.879 342.364 173.521 342.185 174.09 341.827C174.664 341.469 175.115 340.989 175.445 340.386C175.78 339.784 175.948 339.114 175.948 338.375C175.948 337.653 175.786 336.997 175.462 336.406C175.144 335.81 174.703 335.335 174.141 334.983C173.584 334.631 172.948 334.455 172.232 334.455C171.692 334.455 171.189 334.562 170.723 334.778C170.257 334.989 169.848 335.278 169.496 335.648C169.149 336.017 168.877 336.44 168.678 336.918C168.479 337.389 168.379 337.886 168.379 338.409C168.379 339.102 168.541 339.75 168.865 340.352C169.195 340.955 169.644 341.44 170.212 341.81C170.786 342.179 171.436 342.364 172.164 342.364ZM186.318 344.239C185.034 344.239 183.94 343.889 183.037 343.19C182.133 342.486 181.443 341.466 180.966 340.131C180.488 338.79 180.25 337.17 180.25 335.273C180.25 333.386 180.488 331.776 180.966 330.44C181.448 329.099 182.142 328.077 183.045 327.372C183.954 326.662 185.045 326.307 186.318 326.307C187.591 326.307 188.679 326.662 189.582 327.372C190.491 328.077 191.184 329.099 191.662 330.44C192.145 331.776 192.386 333.386 192.386 335.273C192.386 337.17 192.147 338.79 191.67 340.131C191.193 341.466 190.502 342.486 189.599 343.19C188.696 343.889 187.602 344.239 186.318 344.239ZM186.318 342.364C187.591 342.364 188.579 341.75 189.284 340.523C189.988 339.295 190.341 337.545 190.341 335.273C190.341 333.761 190.179 332.474 189.855 331.412C189.537 330.349 189.076 329.54 188.474 328.983C187.877 328.426 187.159 328.148 186.318 328.148C185.056 328.148 184.071 328.77 183.36 330.014C182.65 331.253 182.295 333.006 182.295 335.273C182.295 336.784 182.454 338.068 182.772 339.125C183.091 340.182 183.548 340.986 184.145 341.537C184.747 342.088 185.471 342.364 186.318 342.364ZM206.628 344H201.241V326.545H206.866C208.56 326.545 210.008 326.895 211.213 327.594C212.418 328.287 213.341 329.284 213.983 330.585C214.625 331.881 214.946 333.432 214.946 335.239C214.946 337.057 214.622 338.622 213.974 339.935C213.327 341.241 212.383 342.247 211.145 342.952C209.906 343.651 208.401 344 206.628 344ZM203.355 342.125H206.491C207.935 342.125 209.131 341.847 210.08 341.29C211.028 340.733 211.736 339.94 212.202 338.912C212.668 337.884 212.901 336.659 212.901 335.239C212.901 333.83 212.67 332.616 212.21 331.599C211.75 330.577 211.062 329.793 210.148 329.247C209.233 328.696 208.094 328.42 206.73 328.42H203.355V342.125ZM217.771 344V326.545H228.306V328.42H219.885V334.318H227.76V336.193H219.885V342.125H228.442V344H217.771ZM243.327 332C243.14 331.426 242.892 330.912 242.586 330.457C242.284 329.997 241.924 329.605 241.503 329.281C241.088 328.957 240.617 328.71 240.088 328.54C239.56 328.369 238.98 328.284 238.35 328.284C237.316 328.284 236.375 328.551 235.529 329.085C234.682 329.619 234.009 330.406 233.509 331.446C233.009 332.486 232.759 333.761 232.759 335.273C232.759 336.784 233.012 338.06 233.517 339.099C234.023 340.139 234.708 340.926 235.571 341.46C236.435 341.994 237.407 342.261 238.486 342.261C239.486 342.261 240.367 342.048 241.128 341.622C241.895 341.19 242.492 340.582 242.918 339.798C243.35 339.009 243.566 338.08 243.566 337.011L244.213 337.148H238.963V335.273H245.611V337.148C245.611 338.585 245.304 339.835 244.691 340.898C244.083 341.96 243.242 342.784 242.168 343.369C241.1 343.949 239.872 344.239 238.486 344.239C236.941 344.239 235.583 343.875 234.412 343.148C233.247 342.42 232.338 341.386 231.685 340.045C231.037 338.705 230.713 337.114 230.713 335.273C230.713 333.892 230.898 332.651 231.267 331.548C231.642 330.44 232.171 329.497 232.853 328.719C233.534 327.94 234.341 327.344 235.273 326.929C236.205 326.514 237.23 326.307 238.35 326.307C239.27 326.307 240.128 326.446 240.924 326.724C241.725 326.997 242.438 327.386 243.063 327.892C243.693 328.392 244.219 328.991 244.64 329.69C245.06 330.384 245.35 331.153 245.509 332H243.327ZM248.511 344V326.545H254.409C255.772 326.545 256.892 326.778 257.767 327.244C258.642 327.705 259.29 328.338 259.71 329.145C260.13 329.952 260.341 330.869 260.341 331.898C260.341 332.926 260.13 333.838 259.71 334.634C259.29 335.429 258.645 336.054 257.775 336.509C256.906 336.957 255.795 337.182 254.443 337.182H249.67V335.273H254.375C255.307 335.273 256.057 335.136 256.625 334.864C257.199 334.591 257.613 334.205 257.869 333.705C258.13 333.199 258.261 332.597 258.261 331.898C258.261 331.199 258.13 330.588 257.869 330.065C257.608 329.543 257.19 329.139 256.616 328.855C256.042 328.565 255.284 328.42 254.341 328.42H250.625V344H248.511ZM256.727 336.159L261.022 344H258.568L254.341 336.159H256.727ZM263.143 344V326.545H273.677V328.42H265.256V334.318H273.131V336.193H265.256V342.125H273.813V344H263.143ZM276.766 344V326.545H287.301V328.42H278.88V334.318H286.755V336.193H278.88V342.125H287.437V344H276.766ZM296.42 344V326.545H298.534V334.318H307.841V326.545H309.954V344H307.841V336.193H298.534V344H296.42ZM324.92 326.545H327.034V338.102C327.034 339.295 326.753 340.361 326.19 341.298C325.633 342.23 324.847 342.966 323.829 343.506C322.812 344.04 321.619 344.307 320.25 344.307C318.881 344.307 317.687 344.04 316.67 343.506C315.653 342.966 314.864 342.23 314.301 341.298C313.744 340.361 313.466 339.295 313.466 338.102V326.545H315.579V337.932C315.579 338.784 315.767 339.543 316.142 340.207C316.517 340.866 317.051 341.386 317.744 341.767C318.443 342.142 319.278 342.33 320.25 342.33C321.222 342.33 322.057 342.142 322.756 341.767C323.454 341.386 323.989 340.866 324.358 340.207C324.733 339.543 324.92 338.784 324.92 337.932V326.545ZM330.535 344V326.545H336.637C337.853 326.545 338.856 326.756 339.646 327.176C340.435 327.591 341.024 328.151 341.41 328.855C341.796 329.554 341.989 330.33 341.989 331.182C341.989 331.932 341.856 332.551 341.589 333.04C341.327 333.528 340.981 333.915 340.549 334.199C340.123 334.483 339.66 334.693 339.16 334.83V335C339.694 335.034 340.231 335.222 340.771 335.562C341.31 335.903 341.762 336.392 342.126 337.028C342.489 337.665 342.671 338.443 342.671 339.364C342.671 340.239 342.472 341.026 342.075 341.724C341.677 342.423 341.049 342.977 340.191 343.386C339.333 343.795 338.217 344 336.842 344H330.535ZM332.649 342.125H336.842C338.222 342.125 339.202 341.858 339.782 341.324C340.367 340.784 340.66 340.131 340.66 339.364C340.66 338.773 340.509 338.227 340.208 337.727C339.907 337.222 339.478 336.818 338.921 336.517C338.364 336.21 337.705 336.057 336.944 336.057H332.649V342.125ZM332.649 334.216H336.569C337.205 334.216 337.779 334.091 338.291 333.841C338.808 333.591 339.217 333.239 339.518 332.784C339.825 332.33 339.978 331.795 339.978 331.182C339.978 330.415 339.711 329.764 339.177 329.23C338.643 328.69 337.796 328.42 336.637 328.42H332.649V334.216Z" fill="black"/>
<path d="M294.9 217.727C289.764 217.727 285.389 216.33 281.775 213.534C278.162 210.716 275.4 206.636 273.491 201.295C271.582 195.932 270.628 189.455 270.628 181.864C270.628 174.318 271.582 167.875 273.491 162.534C275.423 157.17 278.196 153.08 281.809 150.261C285.446 147.42 289.809 146 294.9 146C299.991 146 304.343 147.42 307.957 150.261C311.593 153.08 314.366 157.17 316.275 162.534C318.207 167.875 319.173 174.318 319.173 181.864C319.173 189.455 318.218 195.932 316.309 201.295C314.4 206.636 311.639 210.716 308.025 213.534C304.412 216.33 300.037 217.727 294.9 217.727ZM294.9 210.227C299.991 210.227 303.946 207.773 306.764 202.864C309.582 197.955 310.991 190.955 310.991 181.864C310.991 175.818 310.343 170.67 309.048 166.42C307.775 162.17 305.934 158.932 303.525 156.705C301.139 154.477 298.264 153.364 294.9 153.364C289.855 153.364 285.912 155.852 283.071 160.83C280.23 165.784 278.809 172.795 278.809 181.864C278.809 187.909 279.446 193.045 280.718 197.273C281.991 201.5 283.821 204.716 286.207 206.92C288.616 209.125 291.514 210.227 294.9 210.227Z" fill="black"/>
<path d="M246.923 217.727C244.059 217.682 241.196 217.136 238.332 216.091C235.469 215.045 232.855 213.284 230.491 210.807C228.128 208.307 226.23 204.932 224.798 200.682C223.366 196.409 222.65 191.045 222.65 184.591C222.65 178.409 223.23 172.932 224.389 168.159C225.548 163.364 227.23 159.33 229.434 156.057C231.639 152.761 234.298 150.261 237.412 148.557C240.548 146.852 244.082 146 248.014 146C251.923 146 255.4 146.784 258.446 148.352C261.514 149.898 264.014 152.057 265.946 154.83C267.878 157.602 269.128 160.795 269.696 164.409H261.378C260.605 161.273 259.105 158.67 256.878 156.602C254.65 154.534 251.696 153.5 248.014 153.5C242.605 153.5 238.344 155.852 235.23 160.557C232.139 165.261 230.372 172.448 229.909 180.273C229.446 188.097 229.987 191.951 232.362 198.773C232.833 200.128 233.139 201.083 233.73 202.182C235.048 204.591 236.844 206.534 239.116 208.011C241.412 209.489 244.014 210.227 246.923 210.227C249.787 210.227 252.355 209.511 254.628 208.08C256.923 206.648 258.73 204.727 260.048 202.318C261.389 199.909 262.059 197.227 262.059 194.273C262.059 191.386 261.412 188.761 260.116 186.398C258.844 184.011 257.082 182.114 254.832 180.705C252.605 179.295 250.059 178.591 247.196 178.591C245.037 178.591 243.025 179.023 241.162 179.886C239.298 180.727 237.662 181.886 236.253 183.364C234.866 184.841 233.775 186.534 232.98 188.443C232.854 188.742 232.414 188.653 232.416 188.328C232.437 185.815 232.516 180.717 232.822 178.727C232.868 178.425 233.003 178.147 233.196 177.909C233.66 177.337 234.626 176.21 235.639 175.42C237.412 174.034 239.366 172.966 241.503 172.216C243.639 171.466 245.9 171.091 248.287 171.091C252.287 171.091 255.946 172.091 259.264 174.091C262.582 176.068 265.241 178.807 267.241 182.307C269.241 185.784 270.241 189.773 270.241 194.273C270.241 198.591 269.275 202.545 267.344 206.136C265.412 209.705 262.696 212.545 259.196 214.659C255.719 216.75 251.628 217.773 246.923 217.727Z" fill="black"/>
<path d="M197.727 217.727C193.227 217.727 189.216 216.955 185.693 215.409C182.193 213.864 179.409 211.716 177.341 208.966C175.295 206.193 174.182 202.977 174 199.318H182.591C182.773 201.568 183.545 203.511 184.909 205.148C186.273 206.761 188.057 208.011 190.261 208.898C192.466 209.784 194.909 210.227 197.591 210.227C200.591 210.227 203.25 209.705 205.568 208.659C207.886 207.614 209.705 206.159 211.023 204.295C212.341 202.432 213 200.273 213 197.818C213 195.25 212.364 192.989 211.091 191.034C209.818 189.057 207.955 187.511 205.5 186.398C203.045 185.284 200.045 184.727 196.5 184.727H190.909V177.227H196.5C199.273 177.227 201.705 176.727 203.795 175.727C205.909 174.727 207.557 173.318 208.739 171.5C209.943 169.682 210.545 167.545 210.545 165.091C210.545 162.727 210.023 160.67 208.977 158.92C207.932 157.17 206.455 155.807 204.545 154.83C202.659 153.852 200.432 153.364 197.864 153.364C195.455 153.364 193.182 153.807 191.045 154.693C188.932 155.557 187.205 156.818 185.864 158.477C184.523 160.114 183.795 162.091 183.682 164.409H175.5C175.636 160.75 176.739 157.545 178.807 154.795C180.875 152.023 183.58 149.864 186.92 148.318C190.284 146.773 193.977 146 198 146C202.318 146 206.023 146.875 209.114 148.625C212.205 150.352 214.58 152.636 216.239 155.477C217.898 158.318 218.727 161.386 218.727 164.682C218.727 168.614 217.693 171.966 215.625 174.739C213.58 177.511 210.795 179.432 207.273 180.5V181.045C211.682 181.773 215.125 183.648 217.602 186.67C220.08 189.67 221.318 193.386 221.318 197.818C221.318 201.614 220.284 205.023 218.216 208.045C216.17 211.045 213.375 213.409 209.83 215.136C206.284 216.864 202.25 217.727 197.727 217.727Z" fill="black"/>
<circle cx="316" cy="149" r="2.5" stroke="black"/>
</svg>
